<svg width="128" height="128" viewBox="0 0 128 128" fill="none" xmlns="http://www.w3.org/2000/svg">
<path d="M0.5 64C0.5 28.9299 28.9299 0.5 64 0.5C99.0701 0.5 127.5 28.9299 127.5 64C127.5 99.0701 99.0701 127.5 64 127.5C28.9299 127.5 0.5 99.0701 0.5 64Z" fill="#F1EBE4" stroke="black"/>
<g clip-path="url(#clip0_1_37)">
<path d="M63.8915 97.373C64.4773 97.9588 65.427 97.9588 66.0128 97.373L75.5587 87.827C76.1445 87.2412 76.1445 86.2915 75.5587 85.7057C74.973 85.1199 74.0232 85.1199 73.4374 85.7057L64.9521 94.191L56.4669 85.7057C55.8811 85.1199 54.9314 85.1199 54.3456 85.7057C53.7598 86.2915 53.7598 87.2412 54.3456 87.827L63.8915 97.373ZM63.4521 27.5938V96.3123H66.4521V27.5938H63.4521Z" fill="black"/>
</g>
<defs>
<clipPath id="clip0_1_37">
<rect width="32" height="72" fill="white" transform="translate(48 27.5938)"/>
</clipPath>
</defs>
</svg>
