<svg width="35" height="32" xmlns="http://www.w3.org/2000/svg">
 <defs>
  <clipPath id="clip0_1_29">
   <rect id="svg_1" fill="white" height="32" width="35"/>
  </clipPath>
 </defs>
 <g>
  <title>background</title>
  <rect fill="none" id="canvas_background" height="402" width="582" y="-1" x="-1"/>
 </g>
 <g>
  <title>Layer 1</title>
  <g id="svg_2" clip-path="url(#clip0_1_29)">
   <path id="svg_3" fill="#111010" d="m15.9563,28.1755c0,1.9797 -1.6206,3.5849 -3.6198,3.5849c-1.9986,0 -3.61934,-1.6051 -3.61934,-3.5849c0,-1.98 1.62064,-3.5852 3.61934,-3.5852c1.9991,0 3.6198,1.6051 3.6198,3.5852z"/>
   <path id="svg_4" fill="#111010" d="m32.3813,28.1755c0,1.9797 -1.6206,3.5849 -3.6197,3.5849c-1.9991,0 -3.6194,-1.6051 -3.6194,-3.5849c0,-1.98 1.6203,-3.5852 3.6194,-3.5852c1.999,0 3.6197,1.6051 3.6197,3.5852z"/>
   <path id="svg_5" fill="#111010" d="m34.8014,3.29365c-0.1696,-0.20748 -0.4247,-0.32812 -0.6941,-0.32812l-19.5163,0c-0.4928,0 -0.8927,0.39601 -0.8927,0.88427c0,0.48821 0.3998,0.88425 0.8927,0.88425l18.412,0l-1.9232,8.90325c-0.3727,1.0709 -1.3847,1.7871 -2.5315,1.7871l-19.88028,0.0002l-2.13683,-12.37944c-0.29396,-1.70401 -1.77426,-2.94099 -3.51955,-2.94099l-1.77622,0c-0.49292,0 -0.89277,0.396 -0.89277,0.88426c0,0.48826 0.39981,0.88426 0.89277,0.88426l1.77622,0c0.8726,0 1.61298,0.61832 1.7599,1.47037l2.70783,15.68764c0.36762,2.13 2.21812,3.6761 4.39983,3.6761l19.4159,0c0.4929,0 0.8928,-0.396 0.8928,-0.8842c0,-0.4883 -0.3998,-0.8843 -0.8928,-0.8843l-19.4159,0c-1.3091,0 -2.41935,-0.9275 -2.63994,-2.2058l-0.26589,-1.5401l19.57503,0c1.9359,0 3.641,-1.2247 4.2426,-3.0471c0.0099,-0.0294 0.0179,-0.0593 0.0245,-0.0897l2.1649,-10.02128c0.0564,-0.26085 -0.0092,-0.53307 -0.1788,-0.74085l-0.0002,0.00018z"/>
  </g>
 </g>
</svg>